<?xml version="1.0" encoding="utf-8"?>
<!-- Generator: Adobe Illustrator 22.0.1, SVG Export Plug-In . SVG Version: 6.00 Build 0)  -->
<svg version="1.1" id="Layer_1" xmlns="http://www.w3.org/2000/svg" xmlns:xlink="http://www.w3.org/1999/xlink" x="0px" y="0px"
	 viewBox="0 0 200 200" style="enable-background:new 0 0 200 200;" xml:space="preserve">
<style type="text/css">
	.st0{fill:#ffffff;}
</style>
<path class="st0" d="M60,130.4c-10.4,0.1-10.4-14.8,0-14.8h68c10.4,0,10.4,14.8,0,14.7C128.1,130.5,60,130.5,60,130.4 M71.3,154.8
	h45.5c10.4,0.1,10.4-14.8,0-14.7H71.3C60.9,140.1,60.9,154.9,71.3,154.8 M82.5,179.2h23.2c10.3,0.1,10.3-14.8,0-14.7H82.5
	C72.1,164.4,72.1,179.2,82.5,179.2 M55.3,106.1c0,0-10.6-8.9-1.7-29.8c0,0,8,11.8,21.7,14c0,0,5.8-22.2,20.7-25.1
	c0,0-5.3,13.7,8.9,25.5c0,0,12.3-17.4,27.9-17.3c0,0-8.6,8.9-3.6,17.1c0,0,4.6,9.6-0.9,15.6c0,0,9.8,0,16.9-6.2
	c0,0,10.7-6.2,5.7-29.2c0,0-2.5-15.8,22.2-21.4c0,0-28.4-12.1-57.1,8.1c0,0-13.7-20.2,14.4-36.6c0,0-47.3-4.1-67.9,41.2
	c0,0-17.4-8.6-6-30.3c0,0-32.3,11.8-29.4,50C27.1,81.6,27.8,106.1,55.3,106.1"/>
</svg>
